<svg data-name="Layer 1" xmlns="http://www.w3.org/2000/svg" xmlns:xlink="http://www.w3.org/1999/xlink" width="842" height="778.9"><defs><linearGradient id="a" x1="378.4" y1="732.8" x2="378.4" y2="130.2" gradientUnits="userSpaceOnUse"><stop offset="0" stop-color="gray" stop-opacity=".3"/><stop offset=".5" stop-color="gray" stop-opacity=".1"/><stop offset="1" stop-color="gray" stop-opacity=".1"/></linearGradient><linearGradient id="c" x1="274.4" y1="409.3" x2="274.4" y2="248.2" xlink:href="#a"/><linearGradient id="d" x1="274.4" y1="361.4" x2="274.4" y2="261" xlink:href="#a"/><linearGradient id="f" x1="274.4" y1="616" x2="274.4" y2="454.9" xlink:href="#a"/><linearGradient id="g" x1="274.4" y1="568.1" x2="274.4" y2="467.7" xlink:href="#a"/><linearGradient id="i" x1="688.8" y1="765.9" x2="688.8" y2="163.3" gradientTransform="rotate(90 665 477)" xlink:href="#a"/><linearGradient id="j" x1="688.2" y1="568.5" x2="688.2" y2="409.7" gradientTransform="rotate(90 663 499)" xlink:href="#a"/><linearGradient id="k" x1="810.6" y1="767.5" x2="810.6" y2="362.7" gradientUnits="userSpaceOnUse"><stop offset="0" stop-color="#b3b3b3" stop-opacity=".3"/><stop offset=".5" stop-color="#b3b3b3" stop-opacity=".1"/><stop offset="1" stop-color="#b3b3b3" stop-opacity=".1"/></linearGradient><linearGradient id="b" x1="685.5" y1="507.1" x2="685.5" y2="487.6" gradientUnits="userSpaceOnUse"><stop offset="0" stop-opacity=".1"/><stop offset=".6" stop-opacity=".1"/><stop offset="1" stop-opacity="0"/></linearGradient><linearGradient id="l" x1="775" y1="484.7" x2="775" y2="425.1" xlink:href="#b"/><clipPath id="e" transform="translate(-179 -61)"><path data-name="&lt;Rectangle&gt;" fill="#fff" d="M382 323h143v97H382z"/></clipPath><clipPath id="h" transform="translate(-179 -61)"><path data-name="&lt;Rectangle&gt;" fill="#fff" d="M382 529h143v97H382z"/></clipPath></defs><path fill="url(#a)" d="M154 130h449v603H154z" opacity=".5"/><path fill="#f2f2f2" d="M160 138h434v582H160z"/><path fill="#e0e0e0" d="M194 163h149v5H194z"/><path fill="#22354b" opacity=".7" d="M194 184h149v5H194z"/><path fill="#e0e0e0" d="M366 163h149v5H366zM389 296h149v5H389zM392 309h150v5H392zM399 322h150v4H399zM389 503h149v5H389zM392 516h150v4H392zM399 528h150v5H399z"/><path fill="url(#c)" d="M195 248h159v161H195z" opacity=".5"/><path fill="#f5f5f5" d="M196 252h156v154H196z"/><path fill="url(#d)" d="M202 261h145v100H202z" opacity=".5"/><path data-name="&lt;Rectangle&gt;" fill="#fff" d="M203 262h143v97H203z"/><g clip-path="url(#e)" fill="#22354b"><path opacity=".4" d="M190 356l37-56 15 24 32-34 28 34 25-50 63 100-204-7 4-11z"/><circle cx="218.4" cy="276.2" r="10.5" opacity=".4"/></g><path fill="url(#f)" d="M195 455h159v161H195z" opacity=".5"/><path fill="#f5f5f5" d="M196 458h156v155H196z"/><path fill="url(#g)" d="M202 468h145v100H202z" opacity=".5"/><path data-name="&lt;Rectangle&gt;" fill="#fff" d="M203 469h143v97H203z"/><g clip-path="url(#h)" fill="#bdbdbd"><path opacity=".4" d="M190 562l37-56 15 25 32-34 28 34 25-50 63 100-204-7 4-12z"/><circle cx="218.4" cy="482.9" r="10.5" opacity=".4"/></g><path transform="rotate(-79 551 579)" fill="url(#i)" d="M376 276h603v448H376z" opacity=".5"/><path fill="#fff" d="M228 680l114-570 426 84-114 571z"/><path fill="#e0e0e0" d="M367 142l303 60-1 5-303-60zM281 575l303 60-1 5-303-60zM276 601l234 47-1 4-234-46z"/><path fill="#22354b" opacity=".7" d="M271 628l87 17-1 5-87-18zM362 168l151 31-1 4-151-30z"/><path fill="#e0e0e0" d="M357 195l272 54-1 5-272-55z"/><path fill="#3ad29f" opacity=".7" d="M352 221l66 13-1 5-66-13z"/><path fill="#e0e0e0" d="M346 247l303 61-1 4-302-60z"/><path transform="rotate(-79 546 603)" fill="url(#j)" d="M593 386h159v277H593z" opacity=".5"/><path fill="#fff" d="M375 360l268 53-31 153-268-53z"/><path fill="#e0e0e0" d="M341 274l303 60-1 5-303-61z"/><path fill="#22354b" d="M398 386l34 7-22 111-34-6z"/><path fill="#3ad29f" d="M451 435l33 7-15 74-33-7z"/><path fill="#f55f44" d="M504 481l33 7-8 40-33-7z"/><path fill="#fdd835" d="M571 452l34 6-17 82-33-7z"/><path d="M880 411a156 156 0 00-223-2c-59 59-60 156-2 217a156 156 0 00200 22l113 117a8 8 0 0010 0l28-27a8 8 0 001-10L894 610a156 156 0 00-14-199zm-35 188a112 112 0 113-158 112 112 0 01-3 158z" transform="translate(-179 -61)" fill="url(#k)"/><path d="M685 488c-12 0-12 19 0 19s13-19 0-19z" transform="translate(-179 -61)" fill="url(#b)"/><path d="M773 425c-34-1-65 16-81 42-5 8 10 16 15 7 14-21 39-34 67-34 29 1 56 18 70 41 5 9 19 1 14-8-17-28-50-47-85-48z" transform="translate(-179 -61)" fill="url(#l)"/><path d="M714 344a156 156 0 00-223-2c-59 60-60 157-3 217a156 156 0 00200 23l113 117a8 8 0 0011 0l28-27a8 8 0 000-11L727 544a156 156 0 00-13-200zm-35 188a112 112 0 113-157 112 112 0 01-3 157z" fill="#22354b"/><path d="M519 421c-13 0-13 20 0 20s12-20 0-20zM606 359c-34-1-64 16-81 41-5 9 10 16 15 8 14-21 40-35 67-34 30 1 56 17 70 40 5 9 19 1 14-7-17-29-50-48-85-48z" fill="#22354b"/><path fill="#47e6b1" d="M122 664h3v20h-3z"/><path fill="#47e6b1" d="M133 672v4h-20v-4z"/><path d="M572 8a4 4 0 01-3-5 2 2 0 001-1 2 2 0 00-4-1 2 2 0 00-1 0 4 4 0 01-5 3 2 2 0 00-2 3 2 2 0 001 1 4 4 0 012 5 2 2 0 004 2 2 2 0 000-1 4 4 0 015-2 2 2 0 001 0 2 2 0 001-4z" fill="#4d8af0"/><path d="M137 155a4 4 0 01-2-5 2 2 0 000-1 2 2 0 00-4-1 4 4 0 01-5 3 2 2 0 00-1 0 2 2 0 00-1 4 4 4 0 013 5 2 2 0 004 2 4 4 0 015-3 2 2 0 002-4 2 2 0 00-1 0zM755 762a4 4 0 01-2-5 2 2 0 00-4-2 2 2 0 000 1 4 4 0 01-5 2 2 2 0 00-1 0 2 2 0 00-1 4 4 4 0 013 5 2 2 0 00-1 1 2 2 0 004 1 2 2 0 001 0 4 4 0 015-3 2 2 0 002-3 2 2 0 00-1-1z" fill="#fdd835"/><circle cx="321.1" cy="75.3" r="7" fill="#f55f44"/><circle cx="823.3" cy="162.9" r="7" fill="#f55f44"/><circle cx="783.6" cy="371.9" r="7" fill="#4d8af0"/><circle cx="7" cy="28.6" r="7" fill="#47e6b1" opacity=".5"/></svg>